<svg id="svg" version="1.1" xmlns="http://www.w3.org/2000/svg" xmlns:xlink="http://www.w3.org/1999/xlink" width="400" height="400" viewBox="0, 0, 400,400"><g id="svgg"><path id="path0" d="M222.300 165.491 L 220.800 165.648 220.798 168.724 C 220.796 170.416,220.680 173.285,220.538 175.100 L 220.281 178.400 216.341 178.400 C 212.754 178.400,212.400 178.467,212.400 179.150 C 212.400 179.563,212.288 180.463,212.150 181.150 L 211.900 182.400 215.950 182.400 C 219.558 182.400,220.000 182.477,220.000 183.108 C 220.000 183.497,219.451 194.612,218.780 207.808 C 218.109 221.004,217.669 232.790,217.802 234.000 C 218.435 239.751,220.989 243.274,225.426 244.519 C 229.937 245.785,241.744 245.166,242.156 243.643 C 243.212 239.739,243.114 239.651,238.800 240.600 C 230.549 242.415,224.995 240.447,223.422 235.149 C 222.583 232.323,222.627 228.721,223.800 204.800 C 224.345 193.690,224.792 184.105,224.795 183.500 L 224.800 182.400 234.561 182.400 L 244.323 182.400 244.461 180.400 L 244.600 178.400 234.837 178.400 L 225.075 178.400 225.323 171.800 L 225.571 165.200 224.686 165.267 C 224.198 165.304,223.125 165.405,222.300 165.491 " stroke="none" fill="#64d48c" fill-rule="evenodd"></path><path id="path1" d="M48.800 160.832 C 48.800 170.008,47.288 211.802,46.360 228.268 L 45.500 243.536 46.412 244.817 C 51.814 252.404,82.304 258.240,132.000 261.200 C 203.777 265.476,291.091 261.660,328.600 252.608 C 344.735 248.714,350.349 245.359,353.400 237.784 C 357.660 227.208,355.145 221.823,339.733 208.524 C 327.247 197.749,325.212 195.186,325.204 190.226 C 325.188 180.447,339.984 176.190,353.108 182.198 L 355.318 183.210 355.059 180.138 C 354.748 176.463,355.345 177.013,350.830 176.243 C 333.879 173.353,322.074 178.095,320.002 188.627 C 318.571 195.900,321.846 200.971,335.562 212.724 C 346.049 221.711,347.372 223.045,348.815 226.096 C 353.609 236.231,345.639 242.863,322.800 247.742 C 258.635 261.451,95.803 259.417,56.919 244.422 C 51.504 242.333,51.601 242.483,51.592 236.271 C 51.581 229.173,53.938 165.920,54.307 163.410 L 54.600 161.419 57.458 165.410 C 62.813 172.885,100.667 227.501,106.221 235.766 L 111.754 244.000 115.827 244.000 L 119.900 244.000 120.150 242.750 C 120.288 242.063,120.400 239.282,120.400 236.570 C 120.400 229.519,122.278 180.067,122.996 168.200 C 123.329 162.700,123.601 157.525,123.601 156.700 L 123.600 155.200 120.861 155.200 L 118.121 155.200 117.877 160.900 C 117.743 164.035,117.044 182.665,116.325 202.300 C 115.605 221.935,114.895 238.000,114.747 238.000 C 114.371 238.000,109.330 230.870,91.132 204.600 C 82.446 192.060,72.467 177.660,68.957 172.600 C 65.447 167.540,61.411 161.557,59.987 159.304 L 57.400 155.208 53.100 155.204 L 48.800 155.200 48.800 160.832 M164.027 177.235 C 147.219 180.532,138.225 193.882,138.904 214.523 C 139.423 230.300,146.588 240.595,159.600 244.258 C 166.370 246.165,178.796 245.120,185.200 242.107 C 203.922 233.295,207.915 195.797,191.518 182.764 C 185.375 177.880,173.211 175.434,164.027 177.235 M274.827 177.235 C 259.565 180.229,250.961 192.869,251.027 212.200 C 251.119 238.873,268.328 250.388,297.867 243.542 L 301.534 242.692 301.960 240.272 C 302.505 237.177,302.695 237.249,297.900 238.750 C 271.953 246.872,253.099 233.285,256.173 208.680 L 256.457 206.406 282.128 206.303 L 307.800 206.200 307.733 202.069 C 307.438 183.750,293.859 173.502,274.827 177.235 M178.200 181.402 C 189.785 183.834,195.826 192.407,196.300 207.085 C 197.000 228.759,187.263 241.200,169.600 241.200 C 154.015 241.200,144.760 231.465,144.122 214.400 C 143.242 190.841,157.482 177.052,178.200 181.402 M290.295 181.753 C 297.324 184.017,301.893 190.515,302.633 199.300 L 302.894 202.400 280.047 202.400 C 253.670 202.400,256.463 203.032,258.328 197.481 C 262.604 184.758,277.249 177.552,290.295 181.753 " stroke="none" fill="#040404" fill-rule="evenodd"></path></g></svg>